<svg width="1439" height="21230" viewBox="0 0 1439 21230" fill="none" xmlns="http://www.w3.org/2000/svg">
<g clip-path="url(#clip0_29_137)">
<rect width="1439" height="21230" fill="#F7EDE4"/>
<path d="M26.0732 7708.97C19.6647 7721.8 -16.3125 7797.8 -32 7812V7962H70C70 7918.5 130.136 7790.85 164.313 7746.17C203.865 7694.48 237.732 7472.12 268.896 7444.9C323.969 7396.8 428.608 7398.3 504.209 7394.29C579.809 7390.28 753.04 7266.52 782.579 7215.91C812.118 7165.3 772.566 7042.53 807.612 6966.37C842.659 6890.2 980.342 6876.17 1027.4 6869.16C1074.47 6862.14 1096.5 6801.51 1127.54 6790.49C1158.58 6779.46 1213.65 6810.53 1225.67 6853.12C1237.68 6895.71 1277.74 6973.38 1329.81 6985.41C1371.46 6995.03 1443.96 6970.71 1475 6957.35V6829.07C1453.64 6833.58 1399.5 6839.89 1353.84 6829.07C1296.76 6815.54 1192.12 6715.82 1192.12 6647.18C1192.12 6578.53 1344.33 6550.47 1377.87 6549.47C1404.71 6548.66 1453.81 6534.77 1475 6527.92V6103C1443.46 6108.34 1370.26 6130.76 1329.81 6177.66C1279.24 6236.29 1335.31 6289.4 1353.84 6344.02C1372.36 6398.64 1292.26 6490.84 1249.7 6514.89C1207.14 6538.94 1132.54 6517.4 1047.43 6560.49C962.318 6603.58 1007.38 6656.2 991.356 6715.82C975.335 6775.45 851.671 6779.96 782.579 6773.45C713.487 6766.94 585.317 6894.71 583.815 6957.35C582.313 7019.98 631.878 7058.57 614.355 7165.3C596.832 7272.03 429.61 7272.03 339.991 7274.53C250.372 7277.04 185.786 7319.63 128.209 7386.27C70.6325 7452.92 34.0839 7692.94 26.0732 7708.97Z" fill="#DCA225"/>
<path d="M221.444 5396.33C213.044 5361.59 228 5332.5 228 5310H41C41 5328.47 40.9443 5362.39 40.9443 5396.33C40.9443 5438.76 78.4443 5516.63 123.444 5563.05C168.444 5609.47 355.944 5653.9 402.444 5698.82C448.944 5743.75 437.944 5834.59 460.944 5886.01C483.944 5937.42 543.444 5961.88 565.444 5961.88C587.444 5961.88 655.444 5937.92 655.444 5846.57C655.444 5755.23 650.444 5790.17 655.444 5746.74C660.444 5703.32 666.444 5710.8 736.444 5653.9C806.444 5596.99 818.5 5591.98 889.5 5582C960.5 5572.02 1004 5499.93 1018 5461C1032 5422.07 1086.21 5392.7 1098.5 5382.5C1148.5 5341 1124.5 5320.5 1116.5 5310H978C978 5333 939.944 5374.37 899.944 5396.33C849.944 5423.79 753.944 5409.81 666.444 5489.18C578.944 5568.54 607.444 5690.34 565.444 5710.8C523.444 5731.27 496.944 5722.78 474.944 5679.86C452.944 5636.93 452.444 5552.57 414.444 5530.11C376.444 5507.65 231.944 5439.76 221.444 5396.33Z" fill="#FF825C"/>
<path d="M60.4443 5629.94C31.6443 5624.35 -10.2223 5601.32 -27.5557 5590.51V5714.3C52.2777 5755.56 214.344 5820.52 223.944 5750.24C235.944 5662.38 96.4443 5636.93 60.4443 5629.94Z" fill="#EEB8A3"/>
<path d="M425 5430.8C377 5397.35 365 5356.5 365 5310H495C495 5346.5 524.6 5364.61 571 5365.41C617.4 5366.21 655.5 5334 655.5 5310H793.5C793.5 5352 600.5 5481.21 552.5 5481.21C522 5481.21 517 5458.75 495 5451.26C473 5443.77 453.937 5450.96 425 5430.8Z" fill="#F9AB95"/>
<path d="M87.9443 6145.57C63.1443 6106.04 2.27767 6073.52 -25.0557 6062.21L-27.5557 6274.35C-23.7223 6274.35 -13.2557 6280.54 -2.05566 6305.3C11.9443 6336.25 12.4443 6427.09 132.444 6457.54C252.444 6487.99 275.444 6410.62 379.444 6418.61C483.444 6426.59 587.944 6560.87 585.444 6619.27C582.944 6677.67 469.444 6694.14 408.444 6702.13C347.444 6710.12 253.444 6750.05 238.944 6810.45C224.444 6870.84 261.444 6871.34 270.444 6959.69C279.444 7048.04 180.944 7102.45 124.444 7120.42C79.2443 7134.8 6.27767 7138.73 -24.5557 7138.89V7427.4C17.4443 7399.29 106.044 7337.26 124.444 7314.1C147.444 7285.14 135.944 7261.68 160.944 7216.26C185.944 7170.84 314.944 7143.38 357.444 7138.89C399.944 7134.4 452.944 7111.44 469.444 7048.54C485.944 6985.65 455.944 6987.65 432.444 6912.27C408.944 6836.9 502.444 6766.02 546.444 6746.55C590.444 6727.09 612.444 6744.56 666.444 6734.08C720.444 6723.59 756.444 6684.16 775.944 6665.69C795.444 6647.22 783.944 6611.78 785.944 6579.34C787.944 6546.89 796.944 6542.4 832.944 6509.95C868.944 6477.51 953.944 6488.49 1020.94 6487.99C1087.94 6487.49 1179.44 6404.13 1194.94 6320.77C1210.44 6237.41 1143.44 6144.07 1191.44 6051.23C1229.84 5976.95 1397.11 5976.35 1475.94 5985.34V5838.09C1473.61 5838.09 1463.84 5841.08 1443.44 5853.06C1417.94 5868.04 1343.44 5856.56 1255.94 5869.04C1168.44 5881.51 1051.94 5969.87 1003.44 6054.72C954.944 6139.58 1024.94 6200.98 983.444 6299.31C941.944 6397.64 800.944 6370.69 745.444 6402.14C689.944 6433.58 710.444 6458.04 642.944 6470.52C575.444 6483 545.444 6374.18 541.444 6356.71C537.444 6339.24 512.944 6294.32 448.444 6274.35C383.944 6254.38 285.944 6329.76 205.944 6305.3C125.944 6280.84 118.944 6194.99 87.9443 6145.57Z" fill="#F9AB95"/>
<path d="M172.091 5871.95C115.585 5868 -9.84726 5807.52 -45 5778V5941C-16.2238 5948.42 100.281 5975.64 172.091 6008.49C261.853 6049.54 242.723 6151.45 322.185 6185.58C401.646 6219.71 501.218 6183.6 560.569 6200.92C619.92 6218.23 624.825 6284.52 720.964 6294.41C817.102 6304.3 890.187 6187.06 893.13 6151.45C896.073 6115.83 883.32 6095.05 879.887 6047.57C876.453 6000.08 869.586 6008.49 923.541 5909.55C977.497 5810.61 1187.43 5793.8 1248.25 5781.92C1309.08 5770.05 1373.33 5737.4 1427.29 5672.6C1481.24 5607.8 1434.16 5519.25 1437.59 5479.67C1440.34 5448.02 1462.01 5404.16 1471 5388.5V5310H1288C1288 5337.5 1236.19 5360.66 1221.28 5406.96C1202.64 5464.83 1215.88 5572.18 1177.13 5619.67C1138.38 5667.16 1016.74 5687.93 923.541 5706.73C830.346 5725.53 747.941 5810.61 731.264 5892.24C714.587 5973.86 765.109 5967.43 747.941 6059.44C730.774 6151.45 553.702 6127.7 523.781 6095.05C493.861 6062.41 491.408 5977.82 432.057 5909.55C372.706 5841.28 242.723 5876.9 172.091 5871.95Z" fill="#F9ABDF"/>
<path d="M684.944 7893.12C714.944 7920.57 658.5 7927.5 658.5 7963H803.445C803.445 7905.5 851.5 7912.5 861.945 7878.14C874.578 7836.59 1062.94 7811.76 1118.44 7770.33C1173.94 7728.9 1186.44 7583.14 1202.44 7558.18C1218.44 7533.23 1271.44 7544.71 1296.94 7573.66C1322.44 7602.61 1325.94 7699.94 1352.44 7737.38C1373.64 7767.33 1441.28 7782.47 1472.44 7786.3V7607.1C1458.61 7603.94 1421.64 7592.83 1384.44 7573.66C1337.94 7549.7 1332.94 7447.87 1316.94 7390.47C1300.94 7333.06 1267.44 7305.61 1202.44 7303.11C1137.44 7300.62 1126.44 7429.4 1118.44 7495.79C1110.44 7562.18 1050.94 7600.61 1006.94 7639.05C962.945 7677.48 824.445 7671.99 720.945 7737.38C617.445 7802.77 656.516 7867.1 684.944 7893.12Z" fill="#F9ABDF"/>
<path d="M1175.66 7961H1042C1062.69 7939.1 1107.88 7892.08 1123.09 7879.24C1142.12 7863.18 1228.72 7788.44 1270.27 7795.46C1311.81 7802.49 1294.29 7815.53 1321.33 7828.57C1348.36 7841.61 1364.88 7821.55 1406.93 7843.12C1440.56 7860.37 1463.66 7928.9 1471 7961H1340.35C1357.87 7930.9 1304.71 7909.83 1258.25 7909.83C1211.8 7909.83 1183.83 7943.94 1175.66 7961Z" fill="#FF825C"/>
<path d="M341.5 7807.05C341.5 7844.84 254 7909.96 254 7964H493.5C493.5 7926.43 537.6 7921.23 560 7863.94C588 7792.32 550.5 7788.26 585 7689.73C619.5 7591.19 774 7574.43 836.5 7570.37C899 7566.3 903 7559.7 983 7509.92C1063 7460.15 1054.5 7312.35 1049.5 7285.43C1044.5 7258.51 1018.5 7203.14 1146.5 7146.26C1274.5 7089.37 1307.5 7293.55 1343 7331.65C1371.4 7362.12 1442.83 7387.35 1475 7396.15V7066.51C1462.17 7061.1 1428 7050.26 1394 7050.26C1351.5 7050.26 1266 7070.58 1207.5 7050.26C1149 7029.95 1211.5 6981.69 1102.5 6953.25C993.5 6924.81 884.5 7090.89 903 7146.26C921.5 7201.62 911 7238.19 884.5 7312.35C858 7386.5 703.5 7447.45 598.5 7465.23C493.5 7483 432 7513.99 361.5 7581.54C291 7649.09 341.5 7759.82 341.5 7807.05Z" fill="#F9AB95"/>
<path d="M59.4443 6554.88C24.6443 6556.08 -13.0557 6541.07 -27.5557 6533.41V7025.08C-0.888998 7005.62 53.8443 6959.49 59.4443 6930.74C66.4443 6894.8 45.9443 6791.48 66.4443 6741.56C86.9443 6691.65 216.444 6672.18 270.944 6668.19C325.444 6664.19 365.944 6641.23 369.444 6589.32C372.944 6537.41 325.444 6508.96 270.944 6508.96C216.444 6508.96 102.944 6553.38 59.4443 6554.88Z" fill="#F9ABDF"/>
<path d="M25.0732 2404.97C18.6647 2417.8 -14.3125 2449.4 -30 2463.6V2657H71.6909C82.2049 2612.83 129.136 2486.85 163.313 2442.17C202.865 2390.48 236.732 2168.12 267.896 2140.9C322.969 2092.8 427.608 2094.3 503.209 2090.29C578.809 2086.28 752.04 1962.52 781.579 1911.91C811.118 1861.3 771.566 1738.53 806.612 1662.37C841.659 1586.2 979.342 1572.17 1026.4 1565.16C1073.47 1558.14 1095.5 1497.51 1126.54 1486.49C1157.58 1475.46 1212.65 1506.53 1224.67 1549.12C1236.68 1591.71 1276.74 1669.38 1328.81 1681.41C1370.46 1691.03 1442.96 1666.71 1474 1653.35V1525.07C1452.64 1529.58 1398.5 1535.89 1352.84 1525.07C1295.76 1511.54 1191.12 1411.82 1191.12 1343.18C1191.12 1274.53 1343.33 1246.47 1376.87 1245.47C1403.71 1244.66 1452.81 1230.77 1474 1223.92V799C1442.46 804.345 1369.26 826.76 1328.81 873.661C1278.24 932.288 1334.31 985.403 1352.84 1040.02C1371.36 1094.64 1291.26 1186.84 1248.7 1210.89C1206.14 1234.94 1131.54 1213.4 1046.43 1256.49C961.318 1299.58 1006.38 1352.2 990.356 1411.82C974.335 1471.45 850.671 1475.96 781.579 1469.45C712.487 1462.94 584.317 1590.71 582.815 1653.35C581.313 1715.98 630.878 1754.57 613.355 1861.3C595.832 1968.03 428.61 1968.03 338.991 1970.53C249.372 1973.04 184.786 2015.63 127.209 2082.27C69.6325 2148.92 33.0839 2388.94 25.0732 2404.97Z" fill="#DCA225"/>
<path d="M220.444 92.3328C212.044 57.5915 223.944 12.6341 230.944 -5.50195H39.9443V92.3328C39.9443 134.761 77.4443 212.63 122.444 259.051C167.444 305.473 354.944 349.898 401.444 394.822C447.944 439.746 436.944 530.593 459.944 582.006C482.944 633.419 542.444 657.878 564.444 657.878C586.444 657.878 654.444 633.918 654.444 542.573C654.444 451.227 649.444 486.168 654.444 442.741C659.444 399.315 665.444 406.802 735.444 349.898C805.444 292.994 898.944 279.517 969.944 269.534C1040.94 259.551 1107.44 174.694 1121.44 135.76C1135.44 96.8253 1107.44 49.9045 1107.44 33.9315C1107.44 21.153 1116.78 2.31818 1121.44 -5.50195H981.944C970.944 17.9584 938.944 70.3699 898.944 92.3328C848.944 119.786 752.944 105.81 665.444 185.176C577.944 264.542 606.444 386.336 564.444 406.802C522.444 427.267 495.944 418.782 473.944 375.854C451.944 332.927 451.444 248.569 413.444 226.107C375.444 203.645 230.944 135.76 220.444 92.3328Z" fill="#FF825C"/>
<path d="M59.4443 325.939C30.6443 320.349 -11.2223 297.321 -28.5557 286.506V410.297C51.2777 451.561 213.344 516.517 222.944 446.236C234.944 358.384 95.4443 332.927 59.4443 325.939Z" fill="#EEB8A3"/>
<path d="M428.444 114.796C380.444 81.3525 377.444 30.1057 368.444 -6H498.444C504.444 12.136 528.044 48.6078 574.444 49.4065C620.844 50.2051 648.778 12.8016 656.944 -6H796.944C686.444 135.261 603.944 165.211 555.944 165.211C525.444 165.211 520.444 142.749 498.444 135.261C476.444 127.774 457.382 134.958 428.444 114.796Z" fill="#F9AB95"/>
<path d="M86.9443 841.569C62.1443 802.035 1.27767 769.524 -26.0557 758.209L-28.5557 970.351C-24.7223 970.351 -14.2557 976.541 -3.05566 1001.3C10.9443 1032.25 11.4443 1123.09 131.444 1153.54C251.444 1183.99 274.444 1106.62 378.444 1114.61C482.444 1122.59 586.944 1256.87 584.444 1315.27C581.944 1373.67 468.444 1390.14 407.444 1398.13C346.444 1406.12 252.444 1446.05 237.944 1506.45C223.444 1566.84 260.444 1567.34 269.444 1655.69C278.444 1744.04 179.944 1798.45 123.444 1816.42C78.2443 1830.8 5.27767 1834.73 -25.5557 1834.89V2123.4C16.4443 2095.29 105.044 2033.26 123.444 2010.1C146.444 1981.14 134.944 1957.68 159.944 1912.26C184.944 1866.84 313.944 1839.38 356.444 1834.89C398.944 1830.4 451.944 1807.44 468.444 1744.54C484.944 1681.65 454.944 1683.65 431.444 1608.27C407.944 1532.9 501.444 1462.02 545.444 1442.55C589.444 1423.09 611.444 1440.56 665.444 1430.08C719.444 1419.59 755.444 1380.16 774.944 1361.69C794.444 1343.22 782.944 1307.78 784.944 1275.34C786.944 1242.89 795.944 1238.4 831.944 1205.95C867.944 1173.51 952.944 1184.49 1019.94 1183.99C1086.94 1183.49 1178.44 1100.13 1193.94 1016.77C1209.44 933.414 1142.44 840.071 1190.44 747.228C1228.84 672.953 1396.11 672.354 1474.94 681.339V534.088C1472.61 534.088 1462.84 537.083 1442.44 549.063C1416.94 564.037 1342.44 552.557 1254.94 565.036C1167.44 577.515 1050.94 665.865 1002.44 750.722C953.944 835.579 1023.94 896.975 982.444 995.309C940.944 1093.64 799.944 1066.69 744.444 1098.14C688.944 1129.58 709.444 1154.04 641.944 1166.52C574.444 1179 544.444 1070.18 540.444 1052.71C536.444 1035.24 511.944 990.318 447.444 970.351C382.944 950.385 284.944 1025.76 204.944 1001.3C124.944 976.84 117.944 890.985 86.9443 841.569Z" fill="#F9AB95"/>
<path d="M150.944 564.037C93.3444 560.043 7.27768 499.479 -28.5557 469.696V637.912C0.77767 645.399 77.7443 668.66 150.944 701.804C242.444 743.234 222.944 846.061 303.944 880.502C384.944 914.944 486.444 878.506 546.944 895.976C607.444 913.447 612.444 980.334 710.444 990.317C808.444 1000.3 882.944 882 885.944 846.061C888.944 810.121 875.944 789.157 872.444 741.237C868.944 693.318 861.944 701.804 916.944 601.973C971.944 502.141 1185.94 485.17 1247.94 473.19C1309.94 461.21 1375.44 428.266 1430.44 362.876C1485.44 297.487 1437.44 208.138 1440.94 168.205C1443.74 136.259 1462.78 96.6592 1471.94 80.8525V-3.00586H1288.94C1272.44 10.1386 1235.64 48.1078 1220.44 94.8289C1201.44 153.23 1214.94 261.547 1175.44 309.467C1135.94 357.386 1011.94 378.35 916.944 397.318C821.944 416.286 737.944 502.141 720.944 584.502C703.944 666.863 755.444 660.374 737.944 753.217C720.444 846.061 539.944 822.101 509.444 789.157C478.944 756.212 476.444 670.856 415.944 601.973C355.444 533.089 222.944 569.028 150.944 564.037Z" fill="#F9ABDF"/>
<path d="M683.944 2589.12C713.944 2616.57 667.445 2648.02 658.445 2659H795.5C795.5 2606 809.5 2589.12 860.945 2574.14C902.646 2562 1061.94 2507.76 1117.44 2466.33C1172.94 2424.9 1185.44 2279.14 1201.44 2254.18C1217.44 2229.23 1270.44 2240.71 1295.94 2269.66C1321.44 2298.61 1324.94 2395.94 1351.44 2433.38C1372.64 2463.33 1440.28 2478.47 1471.44 2482.3V2303.1C1457.61 2299.94 1420.64 2288.83 1383.44 2269.66C1336.94 2245.7 1331.94 2143.87 1315.94 2086.47C1299.94 2029.06 1266.44 2001.61 1201.44 1999.11C1136.44 1996.62 1125.44 2125.4 1117.44 2191.79C1109.44 2258.18 1049.94 2296.61 1005.94 2335.05C961.945 2373.48 823.445 2367.99 719.945 2433.38C616.445 2498.77 655.516 2563.1 683.944 2589.12Z" fill="#F9ABDF"/>
<path d="M1174.66 2657H1041C1061.69 2635.1 1106.88 2588.08 1122.09 2575.24C1141.12 2559.18 1227.72 2484.44 1269.27 2491.46C1310.81 2498.49 1293.29 2511.53 1320.33 2524.57C1347.36 2537.61 1363.88 2517.55 1405.93 2539.12C1439.56 2556.37 1470 2605.83 1470 2657H1339.35C1356.87 2626.9 1303.71 2605.83 1257.25 2605.83C1210.8 2605.83 1182.83 2639.94 1174.66 2657Z" fill="#FF825C"/>
<path d="M340.5 2503.05C340.5 2540.84 253 2605.96 253 2660H492.5C492.5 2622.43 536.6 2617.23 559 2559.94C587 2488.32 549.5 2484.26 584 2385.73C618.5 2287.19 773 2270.43 835.5 2266.37C898 2262.3 902 2255.7 982 2205.92C1062 2156.15 1053.5 2008.35 1048.5 1981.43C1043.5 1954.51 1017.5 1899.14 1145.5 1842.26C1273.5 1785.37 1306.5 1989.55 1342 2027.65C1370.4 2058.12 1441.83 2083.35 1474 2092.15V1762.51C1461.17 1757.1 1427 1746.26 1393 1746.26C1350.5 1746.26 1265 1766.58 1206.5 1746.26C1148 1725.95 1210.5 1677.69 1101.5 1649.25C992.5 1620.81 883.5 1786.89 902 1842.26C920.5 1897.62 910 1934.19 883.5 2008.35C857 2082.5 702.5 2143.45 597.5 2161.23C492.5 2179 431 2209.99 360.5 2277.54C290 2345.09 340.5 2455.82 340.5 2503.05Z" fill="#F9AB95"/>
<path d="M58.4443 1250.88C23.6443 1252.08 -14.0557 1237.07 -28.5557 1229.41V1721.08C-1.889 1701.62 52.8443 1655.49 58.4443 1626.74C65.4443 1590.8 44.9443 1487.48 65.4443 1437.56C85.9443 1387.65 215.444 1368.18 269.944 1364.19C324.444 1360.19 364.944 1337.23 368.444 1285.32C371.944 1233.41 324.444 1204.96 269.944 1204.96C215.444 1204.96 101.944 1249.38 58.4443 1250.88Z" fill="#F9ABDF"/>
<path d="M30 2960C22.5 2899.5 -14.3333 2856.17 -30 2842V2656.5H72C56 2736.5 133.588 2764.09 154.686 2824C207.305 2973.43 229.241 3130.74 268.5 3165C323.5 3213 428 3211.5 503.5 3215.5C579 3219.5 752 3343 781.5 3393.5C811 3444 771.5 3566.5 806.5 3642.5C841.5 3718.5 979 3732.5 1026 3739.5C1073 3746.5 1095 3807 1126 3818C1157 3829 1212 3798 1224 3755.5C1236 3713 1276 3635.5 1328 3623.5C1369.6 3613.9 1442 3638.17 1473 3651.5V3779.5C1451.67 3775 1397.6 3768.7 1352 3779.5C1295 3793 1190.5 3892.5 1190.5 3961C1190.5 4029.5 1342.5 4057.5 1376 4058.5C1402.8 4059.3 1451.83 4073.17 1473 4080V4504C1441.5 4498.67 1368.4 4476.3 1328 4429.5C1277.5 4371 1333.5 4318 1352 4263.5C1370.5 4209 1290.5 4117 1248 4093C1205.5 4069 1131 4090.5 1046 4047.5C961 4004.5 1006 3952 990 3892.5C974 3833 850.5 3828.5 781.5 3835C712.5 3841.5 584.5 3714 583 3651.5C581.5 3589 631 3550.5 613.5 3444C596 3337.5 429 3337.5 339.5 3335C250 3332.5 185.5 3290 128 3223.5C70.5 3157 40.2893 3043 30 2960Z" fill="#DCA225"/>
<path d="M219 5211.5C210.6 5246.3 228 5284.5 228 5310H41C41 5291.5 38.5 5245.5 38.5 5211.5C38.5 5169 76 5091 121 5044.5C166 4998 353.5 4953.5 400 4908.5C446.5 4863.5 435.5 4772.5 458.5 4721C481.5 4669.5 541 4645 563 4645C585 4645 653 4669 653 4760.5C653 4852 648 4817 653 4860.5C658 4904 664 4896.5 734 4953.5C804 5010.5 897.5 5024 968.5 5034C1039.5 5044 1106 5129 1120 5168C1134 5207 1106 5254 1106 5270C1106 5282.8 1111.83 5302.17 1116.5 5310H978C978 5282.5 937.5 5233.5 897.5 5211.5C847.5 5184 751.5 5198 664 5118.5C576.5 5039 605 4917 563 4896.5C521 4876 494.5 4884.5 472.5 4927.5C450.5 4970.5 450 5055 412 5077.5C374 5100 229.5 5168 219 5211.5Z" fill="#FF825C"/>
<path d="M58 4977.5C29.2 4983.1 -12.6667 5006.17 -30 5017V4893C49.8333 4851.67 211.9 4786.6 221.5 4857C233.5 4945 94 4970.5 58 4977.5Z" fill="#EEB8A3"/>
<path d="M427 5189C379 5222.5 365 5291 365 5310H495C495 5278.5 526.6 5255.3 573 5254.5C619.4 5253.7 655.5 5283.5 655.5 5310H793.5C793.5 5232.5 602.5 5138.5 554.5 5138.5C524 5138.5 519 5161 497 5168.5C475 5176 455.937 5168.8 427 5189Z" fill="#F9AB95"/>
<path d="M85.5 4461C60.7 4500.6 -0.166666 4533.17 -27.5 4544.5L-30 4332C-26.1667 4332 -15.7 4325.8 -4.5 4301C9.5 4270 10 4179 130 4148.5C250 4118 273 4195.5 377 4187.5C481 4179.5 585.5 4045 583 3986.5C580.5 3928 467 3911.5 406 3903.5C345 3895.5 251 3855.5 236.5 3795C222 3734.5 259 3734 268 3645.5C277 3557 178.5 3502.5 122 3484.5C76.8 3470.1 3.83334 3466.17 -27 3466V3177C15 3205.17 103.6 3267.3 122 3290.5C145 3319.5 133.5 3343 158.5 3388.5C183.5 3434 312.5 3461.5 355 3466C397.5 3470.5 450.5 3493.5 467 3556.5C483.5 3619.5 453.5 3617.5 430 3693C406.5 3768.5 500 3839.5 544 3859C588 3878.5 610 3861 664 3871.5C718 3882 754 3921.5 773.5 3940C793 3958.5 781.5 3994 783.5 4026.5C785.5 4059 794.5 4063.5 830.5 4096C866.5 4128.5 951.5 4117.5 1018.5 4118C1085.5 4118.5 1177 4202 1192.5 4285.5C1208 4369 1141 4462.5 1189 4555.5C1227.4 4629.9 1394.67 4630.5 1473.5 4621.5V4769C1471.17 4769 1461.4 4766 1441 4754C1415.5 4739 1341 4750.5 1253.5 4738C1166 4725.5 1049.5 4637 1001 4552C952.5 4467 1022.5 4405.5 981 4307C939.5 4208.5 798.5 4235.5 743 4204C687.5 4172.5 708 4148 640.5 4135.5C573 4123 543 4232 539 4249.5C535 4267 510.5 4312 446 4332C381.5 4352 283.5 4276.5 203.5 4301C123.5 4325.5 116.5 4411.5 85.5 4461Z" fill="#F9AB95"/>
<path d="M149.56 4740.06C91.9406 4744.07 5.84528 4804.95 -30 4834.88V4665.81C-0.656893 4658.28 76.3354 4634.9 149.56 4601.59C241.09 4559.94 221.584 4456.59 302.611 4421.97C383.638 4387.36 485.172 4423.98 545.692 4406.42C606.212 4388.86 611.214 4321.63 709.246 4311.6C807.279 4301.56 881.804 4420.47 884.805 4456.59C887.806 4492.72 874.801 4513.79 871.3 4561.95C867.799 4610.12 860.797 4601.59 915.815 4701.93C970.833 4802.27 1184.9 4819.33 1246.93 4831.37C1308.95 4843.41 1374.47 4876.52 1429.49 4942.25C1484.5 5007.97 1436.49 5097.78 1439.99 5137.91C1442.79 5170.02 1461.83 5209.83 1471 5225.71V5310H1287.94C1287.94 5256 1234.62 5258.63 1219.42 5211.67C1200.41 5152.97 1213.91 5044.09 1174.4 4995.93C1134.89 4947.77 1010.85 4926.69 915.815 4907.63C820.783 4888.56 736.755 4802.27 719.75 4719.49C702.744 4636.71 754.261 4643.23 736.755 4549.91C719.25 4456.59 538.689 4480.67 508.179 4513.79C477.669 4546.9 475.168 4632.69 414.648 4701.93C354.128 4771.16 221.584 4735.04 149.56 4740.06Z" fill="#F9ABDF"/>
<path d="M623.5 2735.5C623.5 2704.83 655 2661.98 659 2658.5H795.5C795.5 2722.5 822.746 2720.42 850.331 2741.49C884.813 2767.82 1060.72 2795.65 1116.19 2836.89C1171.66 2878.13 1184.15 3023.22 1200.14 3048.06C1216.14 3072.9 1269.11 3061.48 1294.59 3032.66C1320.08 3003.84 1323.58 2906.95 1350.06 2869.68C1371.25 2839.87 1438.85 2824.8 1470 2820.99V2999.37C1456.17 3002.51 1419.23 3013.58 1382.05 3032.66C1335.57 3056.51 1330.57 3157.87 1314.58 3215.01C1298.59 3272.15 1265.11 3299.48 1200.14 3301.96C1135.18 3304.45 1124.18 3176.25 1116.19 3110.17C1108.19 3044.09 1048.72 3005.83 1004.75 2967.57C960.772 2929.31 822.346 2934.77 718.901 2869.68C615.456 2804.59 623.5 2780 623.5 2735.5Z" fill="#F9ABDF"/>
<path d="M1174.45 2657H1040.95C984 2717.5 1080.55 2717 1135 2747.5C1180.05 2772.73 1201.91 2833 1244 2833C1271.55 2833 1292.95 2802 1319.95 2789C1346.95 2776 1363.45 2796 1405.45 2774.5C1439.05 2757.3 1470 2694.5 1470 2657H1338.95C1330.95 2674 1303.35 2708 1256.95 2708C1210.55 2708 1165 2678 1174.45 2657Z" fill="#FF825C"/>
<path d="M340.5 2810.5C340.5 2773.3 253 2738.2 253 2656H492.5C492.5 2690 536.6 2698.1 559 2754.5C587 2825 549.5 2829 584 2926C618.5 3023 773 3039.5 835.5 3043.5C898 3047.5 902 3054 982 3103C1062 3152 1053.5 3297.5 1048.5 3324C1043.5 3350.5 1017.5 3405 1145.5 3461C1273.5 3517 1306.5 3316 1342 3278.5C1370.4 3248.5 1441.83 3223.67 1474 3215V3539.5C1461.17 3544.83 1427 3555.5 1393 3555.5C1350.5 3555.5 1265 3535.5 1206.5 3555.5C1148 3575.5 1210.5 3623 1101.5 3651C992.5 3679 883.5 3515.5 902 3461C920.5 3406.5 910 3370.5 883.5 3297.5C857 3224.5 702.5 3164.5 597.5 3147C492.5 3129.5 431 3099 360.5 3032.5C290 2966 340.5 2857 340.5 2810.5Z" fill="#F9AB95"/>
<path d="M57 4051C22.2 4049.8 -15.5 4064.83 -30 4072.5V3580C-3.33333 3599.5 51.4 3645.7 57 3674.5C64 3710.5 43.5 3814 64 3864C84.5 3914 214 3933.5 268.5 3937.5C323 3941.5 363.5 3964.5 367 4016.5C370.5 4068.5 323 4097 268.5 4097C214 4097 100.5 4052.5 57 4051Z" fill="#F9ABDF"/>
<path d="M28 8265C20.5 8204.5 -16.3333 8161.17 -32 8147V7961.5H70C70 8039 131.588 8069.09 152.686 8129C205.305 8278.43 227.241 8435.74 266.5 8470C321.5 8518 426 8516.5 501.5 8520.5C577 8524.5 750 8648 779.5 8698.5C809 8749 769.5 8871.5 804.5 8947.5C839.5 9023.5 977 9037.5 1024 9044.5C1071 9051.5 1093 9112 1124 9123C1155 9134 1210 9103 1222 9060.5C1234 9018 1274 8940.5 1326 8928.5C1367.6 8918.9 1440 8943.17 1471 8956.5V9084.5C1449.67 9080 1395.6 9073.7 1350 9084.5C1293 9098 1188.5 9197.5 1188.5 9266C1188.5 9334.5 1340.5 9362.5 1374 9363.5C1400.8 9364.3 1449.83 9378.17 1471 9385V9809C1439.5 9803.67 1366.4 9781.3 1326 9734.5C1275.5 9676 1331.5 9623 1350 9568.5C1368.5 9514 1288.5 9422 1246 9398C1203.5 9374 1129 9395.5 1044 9352.5C959 9309.5 1004 9257 988 9197.5C972 9138 848.5 9133.5 779.5 9140C710.5 9146.5 582.5 9019 581 8956.5C579.5 8894 629 8855.5 611.5 8749C594 8642.5 427 8642.5 337.5 8640C248 8637.5 183.5 8595 126 8528.5C68.5 8462 38.2893 8348 28 8265Z" fill="#DCA225"/>
<path d="M217 10516.5C208.6 10551.3 226 10589.5 226 10615H37C37 10596.5 36.5 10550.5 36.5 10516.5C36.5 10474 74 10396 119 10349.5C164 10303 351.5 10258.5 398 10213.5C444.5 10168.5 433.5 10077.5 456.5 10026C479.5 9974.5 539 9950 561 9950C583 9950 651 9974 651 10065.5C651 10157 646 10122 651 10165.5C656 10209 662 10201.5 732 10258.5C802 10315.5 895.5 10329 966.5 10339C1037.5 10349 1104 10434 1118 10473C1132 10512 1104 10559 1104 10575C1104 10587.8 1114.5 10608 1114.5 10615H976C976 10587.5 935.5 10538.5 895.5 10516.5C845.5 10489 749.5 10503 662 10423.5C574.5 10344 603 10222 561 10201.5C519 10181 492.5 10189.5 470.5 10232.5C448.5 10275.5 448 10360 410 10382.5C372 10405 227.5 10473 217 10516.5Z" fill="#FF825C"/>
<path d="M56 10282.5C27.2 10288.1 -14.6667 10311.2 -32 10322V10198C47.8333 10156.7 209.9 10091.6 219.5 10162C231.5 10250 92 10275.5 56 10282.5Z" fill="#EEB8A3"/>
<path d="M425 10494C377 10527.5 363 10596 363 10615H493C493 10583.5 524.6 10560.3 571 10559.5C617.4 10558.7 653 10588.5 653 10615H791.5C791.5 10537.5 600.5 10443.5 552.5 10443.5C522 10443.5 517 10466 495 10473.5C473 10481 453.937 10473.8 425 10494Z" fill="#F9AB95"/>
<path d="M83.5 9766C58.7 9805.6 -2.16667 9838.17 -29.5 9849.5L-32 9637C-28.1667 9637 -17.7 9630.8 -6.5 9606C7.5 9575 8 9484 128 9453.5C248 9423 271 9500.5 375 9492.5C479 9484.5 583.5 9350 581 9291.5C578.5 9233 465 9216.5 404 9208.5C343 9200.5 249 9160.5 234.5 9100C220 9039.5 257 9039 266 8950.5C275 8862 176.5 8807.5 120 8789.5C74.8 8775.1 1.83334 8771.17 -29 8771V8482C13 8510.17 101.6 8572.3 120 8595.5C143 8624.5 131.5 8648 156.5 8693.5C181.5 8739 310.5 8766.5 353 8771C395.5 8775.5 448.5 8798.5 465 8861.5C481.5 8924.5 451.5 8922.5 428 8998C404.5 9073.5 498 9144.5 542 9164C586 9183.5 608 9166 662 9176.5C716 9187 752 9226.5 771.5 9245C791 9263.5 779.5 9299 781.5 9331.5C783.5 9364 792.5 9368.5 828.5 9401C864.5 9433.5 949.5 9422.5 1016.5 9423C1083.5 9423.5 1175 9507 1190.5 9590.5C1206 9674 1139 9767.5 1187 9860.5C1225.4 9934.9 1392.67 9935.5 1471.5 9926.5V10074C1469.17 10074 1459.4 10071 1439 10059C1413.5 10044 1339 10055.5 1251.5 10043C1164 10030.5 1047.5 9942 999 9857C950.5 9772 1020.5 9710.5 979 9612C937.5 9513.5 796.5 9540.5 741 9509C685.5 9477.5 706 9453 638.5 9440.5C571 9428 541 9537 537 9554.5C533 9572 508.5 9617 444 9637C379.5 9657 281.5 9581.5 201.5 9606C121.5 9630.5 114.5 9716.5 83.5 9766Z" fill="#F9AB95"/>
<path d="M147.56 10045.1C89.9406 10049.1 3.84528 10109.9 -32 10139.9V9970.81C-2.65689 9963.28 74.3354 9939.9 147.56 9906.59C239.09 9864.94 219.584 9761.59 300.611 9726.97C381.638 9692.36 483.172 9728.98 543.692 9711.42C604.212 9693.86 609.214 9626.63 707.246 9616.6C805.279 9606.56 879.804 9725.47 882.805 9761.59C885.806 9797.72 872.801 9818.79 869.3 9866.95C865.799 9915.12 858.797 9906.59 913.815 10006.9C968.833 10107.3 1182.9 10124.3 1244.93 10136.4C1306.95 10148.4 1372.47 10181.5 1427.49 10247.2C1482.5 10313 1434.49 10402.8 1437.99 10442.9C1440.79 10475 1459.83 10514.8 1469 10530.7V10615H1285.94C1285.94 10561 1232.62 10563.6 1217.42 10516.7C1198.41 10458 1211.91 10349.1 1172.4 10300.9C1132.89 10252.8 1008.85 10231.7 913.815 10212.6C818.783 10193.6 734.755 10107.3 717.75 10024.5C700.744 9941.71 752.261 9948.23 734.755 9854.91C717.25 9761.59 536.689 9785.67 506.179 9818.79C475.669 9851.9 473.168 9937.69 412.648 10006.9C352.128 10076.2 219.584 10040 147.56 10045.1Z" fill="#F9ABDF"/>
<path d="M645 8074C645 8057 658.5 8005 658.5 7963H803.5C803.5 7998.5 819.5 8033 858.331 8045.99C899.478 8059.75 1068.72 8100.15 1124.19 8141.39C1179.66 8182.63 1192.15 8327.72 1208.14 8352.56C1224.14 8377.4 1277.11 8365.98 1302.59 8337.16C1328.08 8308.34 1331.58 8211.45 1358.06 8174.18C1379.25 8144.37 1446.85 8129.3 1478 8125.49V8303.87C1464.17 8307.01 1427.23 8318.08 1390.05 8337.16C1343.57 8361.01 1338.57 8462.37 1322.58 8519.51C1306.59 8576.65 1273.11 8603.98 1208.14 8606.46C1143.18 8608.95 1132.18 8480.75 1124.19 8414.67C1116.19 8348.59 1056.72 8310.33 1012.75 8272.07C968.772 8233.81 879.5 8150.5 726.901 8174.18C673.321 8182.5 645 8112.34 645 8074Z" fill="#F9ABDF"/>
<path d="M1175.48 7961H1041.98C985.023 8021.5 1107.78 8029.7 1122.98 8042.5C1141.98 8058.5 1228.48 8133 1269.98 8126C1311.48 8119 1293.98 8106 1320.98 8093C1347.98 8080 1364.48 8100 1406.48 8078.5C1440.08 8061.3 1471.02 7998.5 1471.02 7961H1339.98C1331.98 7978 1304.38 8012 1257.98 8012C1211.58 8012 1166.02 7982 1175.48 7961Z" fill="#FF825C"/>
<path d="M338.5 8115.5C338.5 8078.3 254 8046.2 254 7964H493.5C493.5 7998 534.6 8003.1 557 8059.5C585 8130 547.5 8134 582 8231C616.5 8328 771 8344.5 833.5 8348.5C896 8352.5 900 8359 980 8408C1060 8457 1051.5 8602.5 1046.5 8629C1041.5 8655.5 1015.5 8710 1143.5 8766C1271.5 8822 1304.5 8621 1340 8583.5C1368.4 8553.5 1439.83 8528.67 1472 8520V8844.5C1459.17 8849.83 1425 8860.5 1391 8860.5C1348.5 8860.5 1263 8840.5 1204.5 8860.5C1146 8880.5 1208.5 8928 1099.5 8956C990.5 8984 881.5 8820.5 900 8766C918.5 8711.5 908 8675.5 881.5 8602.5C855 8529.5 700.5 8469.5 595.5 8452C490.5 8434.5 429 8404 358.5 8337.5C288 8271 338.5 8162 338.5 8115.5Z" fill="#F9AB95"/>
<path d="M55 9356C20.2 9354.8 -17.5 9369.83 -32 9377.5V8885C-5.33333 8904.5 49.4 8950.7 55 8979.5C62 9015.5 41.5 9119 62 9169C82.5 9219 212 9238.5 266.5 9242.5C321 9246.5 361.5 9269.5 365 9321.5C368.5 9373.5 321 9402 266.5 9402C212 9402 98.5 9357.5 55 9356Z" fill="#F9ABDF"/>
<path d="M24.0732 18321C17.6647 18333.8 -18.3125 18409.8 -34 18424V18574H68C68 18530.5 128.136 18402.8 162.313 18358.2C201.865 18306.5 235.732 18084.1 266.896 18056.9C321.969 18008.8 426.608 18010.3 502.209 18006.3C577.809 18002.3 751.04 17878.5 780.579 17827.9C810.118 17777.3 770.566 17654.5 805.612 17578.4C840.659 17502.2 978.342 17488.2 1025.4 17481.2C1072.47 17474.1 1094.5 17413.5 1125.54 17402.5C1156.58 17391.5 1211.65 17422.5 1223.67 17465.1C1235.68 17507.7 1275.74 17585.4 1327.81 17597.4C1369.46 17607 1441.96 17582.7 1473 17569.4V17441.1C1451.64 17445.6 1397.5 17451.9 1351.84 17441.1C1294.76 17427.5 1190.12 17327.8 1190.12 17259.2C1190.12 17190.5 1342.33 17162.5 1375.87 17161.5C1402.71 17160.7 1451.81 17146.8 1473 17139.9V16715C1441.46 16720.3 1368.26 16742.8 1327.81 16789.7C1277.24 16848.3 1333.31 16901.4 1351.84 16956C1370.36 17010.6 1290.26 17102.8 1247.7 17126.9C1205.14 17150.9 1130.54 17129.4 1045.43 17172.5C960.318 17215.6 1005.38 17268.2 989.356 17327.8C973.335 17387.5 849.671 17392 780.579 17385.5C711.487 17378.9 583.317 17506.7 581.815 17569.4C580.313 17632 629.878 17670.6 612.355 17777.3C594.832 17884 427.61 17884 337.991 17886.5C248.372 17889 183.786 17931.6 126.209 17998.3C68.6325 18064.9 32.0839 18304.9 24.0732 18321Z" fill="#DCA225"/>
<path d="M219.444 16008.3C211.044 15973.6 226 15944.5 226 15922H39C39 15940.5 38.9443 15974.4 38.9443 16008.3C38.9443 16050.8 76.4443 16128.6 121.444 16175.1C166.444 16221.5 353.944 16265.9 400.444 16310.8C446.944 16355.8 435.944 16446.6 458.944 16498C481.944 16549.4 541.444 16573.9 563.444 16573.9C585.444 16573.9 653.444 16549.9 653.444 16458.6C653.444 16367.2 648.444 16402.2 653.444 16358.7C658.444 16315.3 664.444 16322.8 734.444 16265.9C804.444 16209 816.5 16204 887.5 16194C958.5 16184 1002 16111.9 1016 16073C1030 16034.1 1084.21 16004.7 1096.5 15994.5C1146.5 15953 1122.5 15932.5 1114.5 15922H976C976 15945 937.944 15986.4 897.944 16008.3C847.944 16035.8 751.944 16021.8 664.444 16101.2C576.944 16180.5 605.444 16302.3 563.444 16322.8C521.444 16343.3 494.944 16334.8 472.944 16291.9C450.944 16248.9 450.444 16164.6 412.444 16142.1C374.444 16119.6 229.944 16051.8 219.444 16008.3Z" fill="#FF825C"/>
<path d="M58.4443 16241.9C29.6443 16236.4 -12.2223 16213.3 -29.5557 16202.5V16326.3C50.2777 16367.6 212.344 16432.5 221.944 16362.2C233.944 16274.4 94.4443 16248.9 58.4443 16241.9Z" fill="#EEB8A3"/>
<path d="M423 16042.8C375 16009.4 363 15968.5 363 15922H493C493 15958.5 522.6 15976.6 569 15977.4C615.4 15978.2 653.5 15946 653.5 15922H791.5C791.5 15964 598.5 16093.2 550.5 16093.2C520 16093.2 515 16070.8 493 16063.3C471 16055.8 451.937 16063 423 16042.8Z" fill="#F9AB95"/>
<path d="M85.9443 16757.6C61.1443 16718 0.27767 16685.5 -27.0557 16674.2L-29.5557 16886.4C-25.7223 16886.4 -15.2557 16892.5 -4.05566 16917.3C9.94434 16948.3 10.4443 17039.1 130.444 17069.5C250.444 17100 273.444 17022.6 377.444 17030.6C481.444 17038.6 585.944 17172.9 583.444 17231.3C580.944 17289.7 467.444 17306.1 406.444 17314.1C345.444 17322.1 251.444 17362.1 236.944 17422.5C222.444 17482.8 259.444 17483.3 268.444 17571.7C277.444 17660 178.944 17714.5 122.444 17732.4C77.2443 17746.8 4.27767 17750.7 -26.5557 17750.9V18039.4C15.4443 18011.3 104.044 17949.3 122.444 17926.1C145.444 17897.1 133.944 17873.7 158.944 17828.3C183.944 17782.8 312.944 17755.4 355.444 17750.9C397.944 17746.4 450.944 17723.4 467.444 17660.5C483.944 17597.7 453.944 17599.7 430.444 17524.3C406.944 17448.9 500.444 17378 544.444 17358.6C588.444 17339.1 610.444 17356.6 664.444 17346.1C718.444 17335.6 754.444 17296.2 773.944 17277.7C793.444 17259.2 781.944 17223.8 783.944 17191.3C785.944 17158.9 794.944 17154.4 830.944 17122C866.944 17089.5 951.944 17100.5 1018.94 17100C1085.94 17099.5 1177.44 17016.1 1192.94 16932.8C1208.44 16849.4 1141.44 16756.1 1189.44 16663.2C1227.84 16589 1395.11 16588.4 1473.94 16597.3V16450.1C1471.61 16450.1 1461.84 16453.1 1441.44 16465.1C1415.94 16480 1341.44 16468.6 1253.94 16481C1166.44 16493.5 1049.94 16581.9 1001.44 16666.7C952.944 16751.6 1022.94 16813 981.444 16911.3C939.944 17009.6 798.944 16982.7 743.444 17014.1C687.944 17045.6 708.444 17070 640.944 17082.5C573.444 17095 543.444 16986.2 539.444 16968.7C535.444 16951.2 510.944 16906.3 446.444 16886.4C381.944 16866.4 283.944 16941.8 203.944 16917.3C123.944 16892.8 116.944 16807 85.9443 16757.6Z" fill="#F9AB95"/>
<path d="M170.091 16484C113.585 16480 -11.8473 16419.5 -47 16390V16553C-18.2238 16560.4 98.281 16587.6 170.091 16620.5C259.853 16661.5 240.723 16763.5 320.185 16797.6C399.646 16831.7 499.218 16795.6 558.569 16812.9C617.92 16830.2 622.825 16896.5 718.964 16906.4C815.102 16916.3 888.187 16799.1 891.13 16763.5C894.073 16727.8 881.32 16707.1 877.887 16659.6C874.453 16612.1 867.586 16620.5 921.541 16521.6C975.497 16422.6 1185.43 16405.8 1246.25 16393.9C1307.08 16382.1 1371.33 16349.4 1425.29 16284.6C1479.24 16219.8 1432.16 16131.3 1435.59 16091.7C1438.34 16060 1460.01 16016.2 1469 16000.5V15922H1286C1286 15949.5 1234.19 15972.7 1219.28 16019C1200.64 16076.8 1213.88 16184.2 1175.13 16231.7C1136.38 16279.2 1014.74 16299.9 921.541 16318.7C828.346 16337.5 745.941 16422.6 729.264 16504.2C712.587 16585.9 763.109 16579.4 745.941 16671.4C728.774 16763.5 551.702 16739.7 521.781 16707.1C491.861 16674.4 489.408 16589.8 430.057 16521.6C370.706 16453.3 240.723 16488.9 170.091 16484Z" fill="#F9ABDF"/>
<path d="M682.944 18505.1C712.944 18532.6 656.5 18539.5 656.5 18575H801.445C801.445 18517.5 849.5 18524.5 859.945 18490.1C872.578 18448.6 1060.94 18423.8 1116.44 18382.3C1171.94 18340.9 1184.44 18195.1 1200.44 18170.2C1216.44 18145.2 1269.44 18156.7 1294.94 18185.7C1320.44 18214.6 1323.94 18311.9 1350.44 18349.4C1371.64 18379.3 1439.28 18394.5 1470.44 18398.3V18219.1C1456.61 18215.9 1419.64 18204.8 1382.44 18185.7C1335.94 18161.7 1330.94 18059.9 1314.94 18002.5C1298.94 17945.1 1265.44 17917.6 1200.44 17915.1C1135.44 17912.6 1124.44 18041.4 1116.44 18107.8C1108.44 18174.2 1048.94 18212.6 1004.94 18251.1C960.945 18289.5 822.445 18284 718.945 18349.4C615.445 18414.8 654.516 18479.1 682.944 18505.1Z" fill="#F9ABDF"/>
<path d="M1173.66 18573H1040C1060.69 18551.1 1105.88 18504.1 1121.09 18491.2C1140.12 18475.2 1226.72 18400.4 1268.27 18407.5C1309.81 18414.5 1292.29 18427.5 1319.33 18440.6C1346.36 18453.6 1362.88 18433.6 1404.93 18455.1C1438.56 18472.4 1461.66 18540.9 1469 18573H1338.35C1355.87 18542.9 1302.71 18521.8 1256.25 18521.8C1209.8 18521.8 1181.83 18555.9 1173.66 18573Z" fill="#FF825C"/>
<path d="M339.5 18419.1C339.5 18456.8 252 18522 252 18576H491.5C491.5 18538.4 535.6 18533.2 558 18475.9C586 18404.3 548.5 18400.3 583 18301.7C617.5 18203.2 772 18186.4 834.5 18182.4C897 18178.3 901 18171.7 981 18121.9C1061 18072.2 1052.5 17924.3 1047.5 17897.4C1042.5 17870.5 1016.5 17815.1 1144.5 17758.3C1272.5 17701.4 1305.5 17905.6 1341 17943.7C1369.4 17974.1 1440.83 17999.4 1473 18008.2V17678.5C1460.17 17673.1 1426 17662.3 1392 17662.3C1349.5 17662.3 1264 17682.6 1205.5 17662.3C1147 17641.9 1209.5 17593.7 1100.5 17565.3C991.5 17536.8 882.5 17702.9 901 17758.3C919.5 17813.6 909 17850.2 882.5 17924.3C856 17998.5 701.5 18059.5 596.5 18077.2C491.5 18095 430 18126 359.5 18193.5C289 18261.1 339.5 18371.8 339.5 18419.1Z" fill="#F9AB95"/>
<path d="M57.4443 17166.9C22.6443 17168.1 -15.0557 17153.1 -29.5557 17145.4V17637.1C-2.889 17617.6 51.8443 17571.5 57.4443 17542.7C64.4443 17506.8 43.9443 17403.5 64.4443 17353.6C84.9443 17303.7 214.444 17284.2 268.944 17280.2C323.444 17276.2 363.944 17253.2 367.444 17201.3C370.944 17149.4 323.444 17121 268.944 17121C214.444 17121 100.944 17165.4 57.4443 17166.9Z" fill="#F9ABDF"/>
<path d="M22.0732 13017C15.6647 13029.8 -17.3125 13061.4 -33 13075.6V13269H68.6909C79.2049 13224.8 126.136 13098.9 160.313 13054.2C199.865 13002.5 233.732 12780.1 264.896 12752.9C319.969 12704.8 424.608 12706.3 500.209 12702.3C575.809 12698.3 749.04 12574.5 778.579 12523.9C808.118 12473.3 768.566 12350.5 803.612 12274.4C838.659 12198.2 976.342 12184.2 1023.4 12177.2C1070.47 12170.1 1092.5 12109.5 1123.54 12098.5C1154.58 12087.5 1209.65 12118.5 1221.67 12161.1C1233.68 12203.7 1273.74 12281.4 1325.81 12293.4C1367.46 12303 1439.96 12278.7 1471 12265.4V12137.1C1449.64 12141.6 1395.5 12147.9 1349.84 12137.1C1292.76 12123.5 1188.12 12023.8 1188.12 11955.2C1188.12 11886.5 1340.33 11858.5 1373.87 11857.5C1400.71 11856.7 1449.81 11842.8 1471 11835.9V11411C1439.46 11416.3 1366.26 11438.8 1325.81 11485.7C1275.24 11544.3 1331.31 11597.4 1349.84 11652C1368.36 11706.6 1288.26 11798.8 1245.7 11822.9C1203.14 11846.9 1128.54 11825.4 1043.43 11868.5C958.318 11911.6 1003.38 11964.2 987.356 12023.8C971.335 12083.5 847.671 12088 778.579 12081.5C709.487 12074.9 581.317 12202.7 579.815 12265.4C578.313 12328 627.878 12366.6 610.355 12473.3C592.832 12580 425.61 12580 335.991 12582.5C246.372 12585 181.786 12627.6 124.209 12694.3C66.6325 12760.9 30.0839 13000.9 22.0732 13017Z" fill="#DCA225"/>
<path d="M217.43 10711.6C209.033 10677.3 226 10635 226 10615H37V10711.6C37 10753.5 74.4855 10830.4 119.468 10876.2C164.451 10922.1 351.878 10965.9 398.36 11010.3C444.842 11054.6 433.846 11144.3 456.838 11195.1C479.829 11245.9 539.306 11270 561.297 11270C583.289 11270 651.262 11246.3 651.262 11156.2C651.262 11066 646.264 11100.5 651.262 11057.6C656.26 11014.7 662.258 11022.1 732.231 10965.9C802.204 10909.7 895.668 10896.4 966.64 10886.6C1037.61 10876.7 1104.09 10792.9 1118.08 10754.5C1132.08 10716 1104.09 10669.7 1104.09 10653.9C1104.09 10641.3 1114.5 10628 1114.5 10615H976C976 10643.5 935.652 10689.9 895.668 10711.6C845.687 10738.7 749.724 10724.9 662.258 10803.3C574.792 10881.6 603.281 11001.9 561.297 11022.1C519.313 11042.3 492.824 11033.9 470.832 10991.5C448.841 10949.2 448.341 10865.9 410.355 10843.7C372.37 10821.5 227.926 10754.5 217.43 10711.6Z" fill="#FF825C"/>
<path d="M56.4443 10937.9C27.6443 10932.4 -14.2223 10909.3 -31.5557 10898.5V11022.3C48.2777 11063.6 210.344 11128.5 219.944 11058.2C231.944 10970.4 92.4443 10944.9 56.4443 10937.9Z" fill="#EEB8A3"/>
<path d="M425.07 10729.3C377.014 10697.7 363 10649 363 10615H493C493 10632 524.786 10666.7 571.24 10667.4C617.695 10668.2 653 10630 653 10615H791.5C791.5 10671.5 600.775 10777 552.719 10777C522.183 10777 517.177 10755.8 495.152 10748.7C473.126 10741.6 454.041 10748.4 425.07 10729.3Z" fill="#F9AB95"/>
<path d="M83.9443 11453.6C59.1443 11414 -1.72233 11381.5 -29.0557 11370.2L-31.5557 11582.4C-27.7223 11582.4 -17.2557 11588.5 -6.05566 11613.3C7.94434 11644.3 8.44434 11735.1 128.444 11765.5C248.444 11796 271.444 11718.6 375.444 11726.6C479.444 11734.6 583.944 11868.9 581.444 11927.3C578.944 11985.7 465.444 12002.1 404.444 12010.1C343.444 12018.1 249.444 12058.1 234.944 12118.5C220.444 12178.8 257.444 12179.3 266.444 12267.7C275.444 12356 176.944 12410.5 120.444 12428.4C75.2443 12442.8 2.27767 12446.7 -28.5557 12446.9V12735.4C13.4443 12707.3 102.044 12645.3 120.444 12622.1C143.444 12593.1 131.944 12569.7 156.944 12524.3C181.944 12478.8 310.944 12451.4 353.444 12446.9C395.944 12442.4 448.944 12419.4 465.444 12356.5C481.944 12293.7 451.944 12295.7 428.444 12220.3C404.944 12144.9 498.444 12074 542.444 12054.6C586.444 12035.1 608.444 12052.6 662.444 12042.1C716.444 12031.6 752.444 11992.2 771.944 11973.7C791.444 11955.2 779.944 11919.8 781.944 11887.3C783.944 11854.9 792.944 11850.4 828.944 11818C864.944 11785.5 949.944 11796.5 1016.94 11796C1083.94 11795.5 1175.44 11712.1 1190.94 11628.8C1206.44 11545.4 1139.44 11452.1 1187.44 11359.2C1225.84 11285 1393.11 11284.4 1471.94 11293.3V11146.1C1469.61 11146.1 1459.84 11149.1 1439.44 11161.1C1413.94 11176 1339.44 11164.6 1251.94 11177C1164.44 11189.5 1047.94 11277.9 999.444 11362.7C950.944 11447.6 1020.94 11509 979.444 11607.3C937.944 11705.6 796.944 11678.7 741.444 11710.1C685.944 11741.6 706.444 11766 638.944 11778.5C571.444 11791 541.444 11682.2 537.444 11664.7C533.444 11647.2 508.944 11602.3 444.444 11582.4C379.944 11562.4 281.944 11637.8 201.944 11613.3C121.944 11588.8 114.944 11503 83.9443 11453.6Z" fill="#F9AB95"/>
<path d="M147.944 11176C90.3444 11172 4.27768 11111.5 -31.5557 11081.7V11249.9C-2.22233 11257.4 74.7443 11280.7 147.944 11313.8C239.444 11355.2 219.944 11458.1 300.944 11492.5C381.944 11527 483.444 11490.5 543.944 11508C604.444 11525.5 609.444 11592.3 707.444 11602.3C805.444 11612.3 879.944 11494 882.944 11458.1C885.944 11422.1 872.944 11401.2 869.444 11353.2C865.944 11305.3 858.944 11313.8 913.944 11214C968.944 11114.1 1182.94 11097.2 1244.94 11085.2C1306.94 11073.2 1372.44 11040.3 1427.44 10974.9C1482.44 10909.5 1434.44 10820.1 1437.94 10780.2C1440.74 10748.3 1459.78 10708.7 1468.94 10692.9V10609H1285.94C1285.94 10684 1232.64 10660.1 1217.44 10706.8C1198.44 10765.2 1211.94 10873.6 1172.44 10921.5C1132.94 10969.4 1008.94 10990.4 913.944 11009.3C818.944 11028.3 734.944 11114.1 717.944 11196.5C700.944 11278.9 752.444 11272.4 734.944 11365.2C717.444 11458.1 536.944 11434.1 506.444 11401.2C475.944 11368.2 473.444 11282.9 412.944 11214C352.444 11145.1 219.944 11181 147.944 11176Z" fill="#F9ABDF"/>
<path d="M680.944 13201.1C710.944 13228.6 664.445 13260 655.445 13271H792.5C792.5 13218 806.5 13201.1 857.945 13186.1C899.646 13174 1058.94 13119.8 1114.44 13078.3C1169.94 13036.9 1182.44 12891.1 1198.44 12866.2C1214.44 12841.2 1267.44 12852.7 1292.94 12881.7C1318.44 12910.6 1321.94 13007.9 1348.44 13045.4C1369.64 13075.3 1437.28 13090.5 1468.44 13094.3V12915.1C1454.61 12911.9 1417.64 12900.8 1380.44 12881.7C1333.94 12857.7 1328.94 12755.9 1312.94 12698.5C1296.94 12641.1 1263.44 12613.6 1198.44 12611.1C1133.44 12608.6 1122.44 12737.4 1114.44 12803.8C1106.44 12870.2 1046.94 12908.6 1002.94 12947.1C958.945 12985.5 820.445 12980 716.945 13045.4C613.445 13110.8 652.516 13175.1 680.944 13201.1Z" fill="#F9ABDF"/>
<path d="M1171.66 13269H1038C1058.69 13247.1 1103.88 13200.1 1119.09 13187.2C1138.12 13171.2 1224.72 13096.4 1266.27 13103.5C1307.81 13110.5 1290.29 13123.5 1317.33 13136.6C1344.36 13149.6 1360.88 13129.6 1402.93 13151.1C1436.56 13168.4 1467 13217.8 1467 13269H1336.35C1353.87 13238.9 1300.71 13217.8 1254.25 13217.8C1207.8 13217.8 1179.83 13251.9 1171.66 13269Z" fill="#FF825C"/>
<path d="M337.5 13115.1C337.5 13152.8 250 13218 250 13272H489.5C489.5 13234.4 533.6 13229.2 556 13171.9C584 13100.3 546.5 13096.3 581 12997.7C615.5 12899.2 770 12882.4 832.5 12878.4C895 12874.3 899 12867.7 979 12817.9C1059 12768.2 1050.5 12620.4 1045.5 12593.4C1040.5 12566.5 1014.5 12511.1 1142.5 12454.3C1270.5 12397.4 1303.5 12601.6 1339 12639.7C1367.4 12670.1 1438.83 12695.4 1471 12704.2V12374.5C1458.17 12369.1 1424 12358.3 1390 12358.3C1347.5 12358.3 1262 12378.6 1203.5 12358.3C1145 12337.9 1207.5 12289.7 1098.5 12261.3C989.5 12232.8 880.5 12398.9 899 12454.3C917.5 12509.6 907 12546.2 880.5 12620.4C854 12694.5 699.5 12755.5 594.5 12773.2C489.5 12791 428 12822 357.5 12889.5C287 12957.1 337.5 13067.8 337.5 13115.1Z" fill="#F9AB95"/>
<path d="M55.4443 11862.9C20.6443 11864.1 -17.0557 11849.1 -31.5557 11841.4V12333.1C-4.889 12313.6 49.8443 12267.5 55.4443 12238.7C62.4443 12202.8 41.9443 12099.5 62.4443 12049.6C82.9443 11999.7 212.444 11980.2 266.944 11976.2C321.444 11972.2 361.944 11949.2 365.444 11897.3C368.944 11845.4 321.444 11817 266.944 11817C212.444 11817 98.9443 11861.4 55.4443 11862.9Z" fill="#F9ABDF"/>
<path d="M28 13572C20.5 13511.5 -16.3333 13468.2 -32 13454V13268.5H70C54 13348.5 131.588 13376.1 152.686 13436C205.305 13585.4 227.241 13742.7 266.5 13777C321.5 13825 426 13823.5 501.5 13827.5C577 13831.5 750 13955 779.5 14005.5C809 14056 769.5 14178.5 804.5 14254.5C839.5 14330.5 977 14344.5 1024 14351.5C1071 14358.5 1093 14419 1124 14430C1155 14441 1210 14410 1222 14367.5C1234 14325 1274 14247.5 1326 14235.5C1367.6 14225.9 1440 14250.2 1471 14263.5V14391.5C1449.67 14387 1395.6 14380.7 1350 14391.5C1293 14405 1188.5 14504.5 1188.5 14573C1188.5 14641.5 1340.5 14669.5 1374 14670.5C1400.8 14671.3 1449.83 14685.2 1471 14692V15116C1439.5 15110.7 1366.4 15088.3 1326 15041.5C1275.5 14983 1331.5 14930 1350 14875.5C1368.5 14821 1288.5 14729 1246 14705C1203.5 14681 1129 14702.5 1044 14659.5C959 14616.5 1004 14564 988 14504.5C972 14445 848.5 14440.5 779.5 14447C710.5 14453.5 582.5 14326 581 14263.5C579.5 14201 629 14162.5 611.5 14056C594 13949.5 427 13949.5 337.5 13947C248 13944.5 183.5 13902 126 13835.5C68.5 13769 38.2893 13655 28 13572Z" fill="#DCA225"/>
<path d="M217 15823.5C208.6 15858.3 226 15896.5 226 15922H39C39 15903.5 36.5 15857.5 36.5 15823.5C36.5 15781 74 15703 119 15656.5C164 15610 351.5 15565.5 398 15520.5C444.5 15475.5 433.5 15384.5 456.5 15333C479.5 15281.5 539 15257 561 15257C583 15257 651 15281 651 15372.5C651 15464 646 15429 651 15472.5C656 15516 662 15508.5 732 15565.5C802 15622.5 895.5 15636 966.5 15646C1037.5 15656 1104 15741 1118 15780C1132 15819 1104 15866 1104 15882C1104 15894.8 1109.83 15914.2 1114.5 15922H976C976 15894.5 935.5 15845.5 895.5 15823.5C845.5 15796 749.5 15810 662 15730.5C574.5 15651 603 15529 561 15508.5C519 15488 492.5 15496.5 470.5 15539.5C448.5 15582.5 448 15667 410 15689.5C372 15712 227.5 15780 217 15823.5Z" fill="#FF825C"/>
<path d="M56 15589.5C27.2 15595.1 -14.6667 15618.2 -32 15629V15505C47.8333 15463.7 209.9 15398.6 219.5 15469C231.5 15557 92 15582.5 56 15589.5Z" fill="#EEB8A3"/>
<path d="M425 15801C377 15834.5 363 15903 363 15922H493C493 15890.5 524.6 15867.3 571 15866.5C617.4 15865.7 653.5 15895.5 653.5 15922H791.5C791.5 15844.5 600.5 15750.5 552.5 15750.5C522 15750.5 517 15773 495 15780.5C473 15788 453.937 15780.8 425 15801Z" fill="#F9AB95"/>
<path d="M83.5 15073C58.7 15112.6 -2.16667 15145.2 -29.5 15156.5L-32 14944C-28.1667 14944 -17.7 14937.8 -6.5 14913C7.5 14882 8 14791 128 14760.5C248 14730 271 14807.5 375 14799.5C479 14791.5 583.5 14657 581 14598.5C578.5 14540 465 14523.5 404 14515.5C343 14507.5 249 14467.5 234.5 14407C220 14346.5 257 14346 266 14257.5C275 14169 176.5 14114.5 120 14096.5C74.8 14082.1 1.83334 14078.2 -29 14078V13789C13 13817.2 101.6 13879.3 120 13902.5C143 13931.5 131.5 13955 156.5 14000.5C181.5 14046 310.5 14073.5 353 14078C395.5 14082.5 448.5 14105.5 465 14168.5C481.5 14231.5 451.5 14229.5 428 14305C404.5 14380.5 498 14451.5 542 14471C586 14490.5 608 14473 662 14483.5C716 14494 752 14533.5 771.5 14552C791 14570.5 779.5 14606 781.5 14638.5C783.5 14671 792.5 14675.5 828.5 14708C864.5 14740.5 949.5 14729.5 1016.5 14730C1083.5 14730.5 1175 14814 1190.5 14897.5C1206 14981 1139 15074.5 1187 15167.5C1225.4 15241.9 1392.67 15242.5 1471.5 15233.5V15381C1469.17 15381 1459.4 15378 1439 15366C1413.5 15351 1339 15362.5 1251.5 15350C1164 15337.5 1047.5 15249 999 15164C950.5 15079 1020.5 15017.5 979 14919C937.5 14820.5 796.5 14847.5 741 14816C685.5 14784.5 706 14760 638.5 14747.5C571 14735 541 14844 537 14861.5C533 14879 508.5 14924 444 14944C379.5 14964 281.5 14888.5 201.5 14913C121.5 14937.5 114.5 15023.5 83.5 15073Z" fill="#F9AB95"/>
<path d="M147.56 15352.1C89.9406 15356.1 3.84528 15416.9 -32 15446.9V15277.8C-2.65689 15270.3 74.3354 15246.9 147.56 15213.6C239.09 15171.9 219.584 15068.6 300.611 15034C381.638 14999.4 483.172 15036 543.692 15018.4C604.212 15000.9 609.214 14933.6 707.246 14923.6C805.279 14913.6 879.804 15032.5 882.805 15068.6C885.806 15104.7 872.801 15125.8 869.3 15174C865.799 15222.1 858.797 15213.6 913.815 15313.9C968.833 15414.3 1182.9 15431.3 1244.93 15443.4C1306.95 15455.4 1372.47 15488.5 1427.49 15554.3C1482.5 15620 1434.49 15709.8 1437.99 15749.9C1440.79 15782 1459.83 15821.8 1469 15837.7V15922H1285.94C1285.94 15868 1232.62 15870.6 1217.42 15823.7C1198.41 15765 1211.91 15656.1 1172.4 15607.9C1132.89 15559.8 1008.85 15538.7 913.815 15519.6C818.783 15500.6 734.755 15414.3 717.75 15331.5C700.744 15248.7 752.261 15255.2 734.755 15161.9C717.25 15068.6 536.689 15092.7 506.179 15125.8C475.669 15158.9 473.168 15244.7 412.648 15313.9C352.128 15383.2 219.584 15347 147.56 15352.1Z" fill="#F9ABDF"/>
<path d="M621.5 13347.5C621.5 13316.8 653 13274 657 13270.5H793.5C793.5 13334.5 820.746 13332.4 848.331 13353.5C882.813 13379.8 1058.72 13407.7 1114.19 13448.9C1169.66 13490.1 1182.15 13635.2 1198.14 13660.1C1214.14 13684.9 1267.11 13673.5 1292.59 13644.7C1318.08 13615.8 1321.58 13519 1348.06 13481.7C1369.25 13451.9 1436.85 13436.8 1468 13433V13611.4C1454.17 13614.5 1417.23 13625.6 1380.05 13644.7C1333.57 13668.5 1328.57 13769.9 1312.58 13827C1296.59 13884.2 1263.11 13911.5 1198.14 13914C1133.18 13916.5 1122.18 13788.3 1114.19 13722.2C1106.19 13656.1 1046.72 13617.8 1002.75 13579.6C958.772 13541.3 820.346 13546.8 716.901 13481.7C613.456 13416.6 621.5 13392 621.5 13347.5Z" fill="#F9ABDF"/>
<path d="M1172.45 13269H1038.95C982 13329.5 1078.55 13329 1133 13359.5C1178.05 13384.7 1199.91 13445 1242 13445C1269.55 13445 1290.95 13414 1317.95 13401C1344.95 13388 1361.45 13408 1403.45 13386.5C1437.05 13369.3 1468 13306.5 1468 13269H1336.95C1328.95 13286 1301.35 13320 1254.95 13320C1208.55 13320 1163 13290 1172.45 13269Z" fill="#FF825C"/>
<path d="M338.5 13422.5C338.5 13385.3 251 13350.2 251 13268H490.5C490.5 13302 534.6 13310.1 557 13366.5C585 13437 547.5 13441 582 13538C616.5 13635 771 13651.5 833.5 13655.5C896 13659.5 900 13666 980 13715C1060 13764 1051.5 13909.5 1046.5 13936C1041.5 13962.5 1015.5 14017 1143.5 14073C1271.5 14129 1304.5 13928 1340 13890.5C1368.4 13860.5 1439.83 13835.7 1472 13827V14151.5C1459.17 14156.8 1425 14167.5 1391 14167.5C1348.5 14167.5 1263 14147.5 1204.5 14167.5C1146 14187.5 1208.5 14235 1099.5 14263C990.5 14291 881.5 14127.5 900 14073C918.5 14018.5 908 13982.5 881.5 13909.5C855 13836.5 700.5 13776.5 595.5 13759C490.5 13741.5 429 13711 358.5 13644.5C288 13578 338.5 13469 338.5 13422.5Z" fill="#F9AB95"/>
<path d="M55 14663C20.2 14661.8 -17.5 14676.8 -32 14684.5V14192C-5.33333 14211.5 49.4 14257.7 55 14286.5C62 14322.5 41.5 14426 62 14476C82.5 14526 212 14545.5 266.5 14549.5C321 14553.5 361.5 14576.5 365 14628.5C368.5 14680.5 321 14709 266.5 14709C212 14709 98.5 14664.5 55 14663Z" fill="#F9ABDF"/>
<path d="M26 18877C18.5 18816.5 -18.3333 18773.2 -34 18759V18573.5H68C68 18651 129.588 18681.1 150.686 18741C203.305 18890.4 225.241 19047.7 264.5 19082C319.5 19130 424 19128.5 499.5 19132.5C575 19136.5 748 19260 777.5 19310.5C807 19361 767.5 19483.5 802.5 19559.5C837.5 19635.5 975 19649.5 1022 19656.5C1069 19663.5 1091 19724 1122 19735C1153 19746 1208 19715 1220 19672.5C1232 19630 1272 19552.5 1324 19540.5C1365.6 19530.9 1438 19555.2 1469 19568.5V19696.5C1447.67 19692 1393.6 19685.7 1348 19696.5C1291 19710 1186.5 19809.5 1186.5 19878C1186.5 19946.5 1338.5 19974.5 1372 19975.5C1398.8 19976.3 1447.83 19990.2 1469 19997V20421C1437.5 20415.7 1364.4 20393.3 1324 20346.5C1273.5 20288 1329.5 20235 1348 20180.5C1366.5 20126 1286.5 20034 1244 20010C1201.5 19986 1127 20007.5 1042 19964.5C957 19921.5 1002 19869 986 19809.5C970 19750 846.5 19745.5 777.5 19752C708.5 19758.5 580.5 19631 579 19568.5C577.5 19506 627 19467.5 609.5 19361C592 19254.5 425 19254.5 335.5 19252C246 19249.5 181.5 19207 124 19140.5C66.5 19074 36.2893 18960 26 18877Z" fill="#DCA225"/>
<path d="M215 21128.5C206.6 21163.3 224 21201.5 224 21227H37C37 21208.5 34.5 21162.5 34.5 21128.5C34.5 21086 72 21008 117 20961.5C162 20915 349.5 20870.5 396 20825.5C442.5 20780.5 431.5 20689.5 454.5 20638C477.5 20586.5 537 20562 559 20562C581 20562 649 20586 649 20677.5C649 20769 644 20734 649 20777.5C654 20821 660 20813.5 730 20870.5C800 20927.5 893.5 20941 964.5 20951C1035.5 20961 1102 21046 1116 21085C1130 21124 1102 21171 1102 21187C1102 21199.8 1107.83 21219.2 1112.5 21227H974C974 21199.5 933.5 21150.5 893.5 21128.5C843.5 21101 747.5 21115 660 21035.5C572.5 20956 601 20834 559 20813.5C517 20793 490.5 20801.5 468.5 20844.5C446.5 20887.5 446 20972 408 20994.5C370 21017 225.5 21085 215 21128.5Z" fill="#FF825C"/>
<path d="M54 20894.5C25.2 20900.1 -16.6667 20923.2 -34 20934V20810C45.8333 20768.7 207.9 20703.6 217.5 20774C229.5 20862 90 20887.5 54 20894.5Z" fill="#EEB8A3"/>
<path d="M423 21106C375 21139.5 361 21208 361 21227H491C491 21195.5 522.6 21172.3 569 21171.5C615.4 21170.7 651.5 21200.5 651.5 21227H789.5C789.5 21149.5 598.5 21055.5 550.5 21055.5C520 21055.5 515 21078 493 21085.5C471 21093 451.937 21085.8 423 21106Z" fill="#F9AB95"/>
<path d="M81.5 20378C56.7 20417.6 -4.16667 20450.2 -31.5 20461.5L-34 20249C-30.1667 20249 -19.7 20242.8 -8.5 20218C5.5 20187 6 20096 126 20065.5C246 20035 269 20112.5 373 20104.5C477 20096.5 581.5 19962 579 19903.5C576.5 19845 463 19828.5 402 19820.5C341 19812.5 247 19772.5 232.5 19712C218 19651.5 255 19651 264 19562.5C273 19474 174.5 19419.5 118 19401.5C72.8 19387.1 -0.166664 19383.2 -31 19383V19094C11 19122.2 99.6 19184.3 118 19207.5C141 19236.5 129.5 19260 154.5 19305.5C179.5 19351 308.5 19378.5 351 19383C393.5 19387.5 446.5 19410.5 463 19473.5C479.5 19536.5 449.5 19534.5 426 19610C402.5 19685.5 496 19756.5 540 19776C584 19795.5 606 19778 660 19788.5C714 19799 750 19838.5 769.5 19857C789 19875.5 777.5 19911 779.5 19943.5C781.5 19976 790.5 19980.5 826.5 20013C862.5 20045.5 947.5 20034.5 1014.5 20035C1081.5 20035.5 1173 20119 1188.5 20202.5C1204 20286 1137 20379.5 1185 20472.5C1223.4 20546.9 1390.67 20547.5 1469.5 20538.5V20686C1467.17 20686 1457.4 20683 1437 20671C1411.5 20656 1337 20667.5 1249.5 20655C1162 20642.5 1045.5 20554 997 20469C948.5 20384 1018.5 20322.5 977 20224C935.5 20125.5 794.5 20152.5 739 20121C683.5 20089.5 704 20065 636.5 20052.5C569 20040 539 20149 535 20166.5C531 20184 506.5 20229 442 20249C377.5 20269 279.5 20193.5 199.5 20218C119.5 20242.5 112.5 20328.5 81.5 20378Z" fill="#F9AB95"/>
<path d="M145.56 20657.1C87.9406 20661.1 1.84528 20721.9 -34 20751.9V20582.8C-4.65689 20575.3 72.3354 20551.9 145.56 20518.6C237.09 20476.9 217.584 20373.6 298.611 20339C379.638 20304.4 481.172 20341 541.692 20323.4C602.212 20305.9 607.214 20238.6 705.246 20228.6C803.279 20218.6 877.804 20337.5 880.805 20373.6C883.806 20409.7 870.801 20430.8 867.3 20479C863.799 20527.1 856.797 20518.6 911.815 20618.9C966.833 20719.3 1180.9 20736.3 1242.93 20748.4C1304.95 20760.4 1370.47 20793.5 1425.49 20859.3C1480.5 20925 1432.49 21014.8 1435.99 21054.9C1438.79 21087 1457.83 21126.8 1467 21142.7V21227H1283.94C1283.94 21173 1230.62 21175.6 1215.42 21128.7C1196.41 21070 1209.91 20961.1 1170.4 20912.9C1130.89 20864.8 1006.85 20843.7 911.815 20824.6C816.783 20805.6 732.755 20719.3 715.75 20636.5C698.744 20553.7 750.261 20560.2 732.755 20466.9C715.25 20373.6 534.689 20397.7 504.179 20430.8C473.669 20463.9 471.168 20549.7 410.648 20618.9C350.128 20688.2 217.584 20652 145.56 20657.1Z" fill="#F9ABDF"/>
<path d="M643 18686C643 18669 656.5 18617 656.5 18575H801.5C801.5 18610.5 817.5 18645 856.331 18658C897.478 18671.8 1066.72 18712.2 1122.19 18753.4C1177.66 18794.6 1190.15 18939.7 1206.14 18964.6C1222.14 18989.4 1275.11 18978 1300.59 18949.2C1326.08 18920.3 1329.58 18823.5 1356.06 18786.2C1377.25 18756.4 1444.85 18741.3 1476 18737.5V18915.9C1462.17 18919 1425.23 18930.1 1388.05 18949.2C1341.57 18973 1336.57 19074.4 1320.58 19131.5C1304.59 19188.7 1271.11 19216 1206.14 19218.5C1141.18 19221 1130.18 19092.8 1122.19 19026.7C1114.19 18960.6 1054.72 18922.3 1010.75 18884.1C966.772 18845.8 877.5 18762.5 724.901 18786.2C671.321 18794.5 643 18724.3 643 18686Z" fill="#F9ABDF"/>
<path d="M1173.48 18573H1039.98C983.023 18633.5 1105.78 18641.7 1120.98 18654.5C1139.98 18670.5 1226.48 18745 1267.98 18738C1309.48 18731 1291.98 18718 1318.98 18705C1345.98 18692 1362.48 18712 1404.48 18690.5C1438.08 18673.3 1469.02 18610.5 1469.02 18573H1337.98C1329.98 18590 1302.38 18624 1255.98 18624C1209.58 18624 1164.02 18594 1173.48 18573Z" fill="#FF825C"/>
<path d="M336.5 18727.5C336.5 18690.3 252 18658.2 252 18576H491.5C491.5 18610 532.6 18615.1 555 18671.5C583 18742 545.5 18746 580 18843C614.5 18940 769 18956.5 831.5 18960.5C894 18964.5 898 18971 978 19020C1058 19069 1049.5 19214.5 1044.5 19241C1039.5 19267.5 1013.5 19322 1141.5 19378C1269.5 19434 1302.5 19233 1338 19195.5C1366.4 19165.5 1437.83 19140.7 1470 19132V19456.5C1457.17 19461.8 1423 19472.5 1389 19472.5C1346.5 19472.5 1261 19452.5 1202.5 19472.5C1144 19492.5 1206.5 19540 1097.5 19568C988.5 19596 879.5 19432.5 898 19378C916.5 19323.5 906 19287.5 879.5 19214.5C853 19141.5 698.5 19081.5 593.5 19064C488.5 19046.5 427 19016 356.5 18949.5C286 18883 336.5 18774 336.5 18727.5Z" fill="#F9AB95"/>
<path d="M53 19968C18.2 19966.8 -19.5 19981.8 -34 19989.5V19497C-7.33333 19516.5 47.4 19562.7 53 19591.5C60 19627.5 39.5 19731 60 19781C80.5 19831 210 19850.5 264.5 19854.5C319 19858.5 359.5 19881.5 363 19933.5C366.5 19985.5 319 20014 264.5 20014C210 20014 96.5 19969.5 53 19968Z" fill="#F9ABDF"/>
</g>
<defs>
<clipPath id="clip0_29_137">
<rect width="1439" height="21230" fill="white"/>
</clipPath>
</defs>
</svg>
