<?xml version="1.0" standalone="no"?>
<!DOCTYPE svg PUBLIC "-//W3C//DTD SVG 20010904//EN"
 "http://www.w3.org/TR/2001/REC-SVG-20010904/DTD/svg10.dtd">
<svg version="1.0" xmlns="http://www.w3.org/2000/svg"
 width="700.000000pt" height="700.000000pt" viewBox="0 0 700.000000 700.000000"
 preserveAspectRatio="xMidYMid meet">
<metadata>
Created by potrace 1.14, written by Peter Selinger 2001-2017
</metadata>
<g transform="translate(0.000000,700.000000) scale(0.100000,-0.100000)"
fill="#000000" stroke="none">
<path d="M810 6989 c-213 -18 -432 -123 -566 -272 -122 -135 -196 -289 -224
-462 -16 -98 -16 -5426 0 -5517 65 -374 352 -658 725 -718 99 -16 5400 -16
5500 0 97 15 165 35 249 75 90 42 216 135 276 204 106 121 185 289 210 447 16
97 16 5424 0 5516 -60 347 -306 615 -646 703 -85 22 -105 23 -499 25 -1330 5
-4962 4 -5025 -1z"/>
</g>
</svg>
